REM DIRINDEX 1\2,1\3
REM DIRNAME folder01,folder02,folder03
TITLE ""
FILE "1061-1080.mp3" MP3
  TRACK 01 AUDIO
    TITLE "0:"
    INDEX 01 00:00:00
  TRACK 02 AUDIO
    TITLE "2:cjc039_1121"
    INDEX 01 00:00:23
  TRACK 03 AUDIO
    TITLE "0:"
    INDEX 01 00:01:26
  TRACK 04 AUDIO
    TITLE "3:cjc039_1122"
    INDEX 01 00:02:02
  TRACK 05 AUDIO
    TITLE "0:"
    INDEX 01 00:06:26
  TRACK 06 AUDIO
    TITLE "2:cjc039_1123"
    INDEX 01 00:08:05
  TRACK 07 AUDIO
    TITLE "0:"
    INDEX 01 00:09:30
  TRACK 08 AUDIO
    TITLE "3:cjc039_1124"
    INDEX 01 00:10:08
  TRACK 09 AUDIO
    TITLE "0:"
    INDEX 01 00:13:26
  TRACK 10 AUDIO
    TITLE "2:cjc039_1125"
    INDEX 01 00:15:09
  TRACK 11 AUDIO
    TITLE "0:"
    INDEX 01 00:16:12
  TRACK 12 AUDIO
    TITLE "3:cjc039_1126"
    INDEX 01 00:16:65
  TRACK 13 AUDIO
    TITLE "0:"
    INDEX 01 00:20:65
  TRACK 14 AUDIO
    TITLE "2:cjc039_1127"
    INDEX 01 00:22:38
  TRACK 15 AUDIO
    TITLE "0:"
    INDEX 01 00:23:63
  TRACK 16 AUDIO
    TITLE "3:cjc039_1128"
    INDEX 01 00:24:37
  TRACK 17 AUDIO
    TITLE "0:"
    INDEX 01 00:28:41
  TRACK 18 AUDIO
    TITLE "2:cjc039_1129"
    INDEX 01 00:30:18
  TRACK 19 AUDIO
    TITLE "0:"
    INDEX 01 00:31:20
  TRACK 20 AUDIO
    TITLE "3:cjc039_1130"
    INDEX 01 00:31:69
  TRACK 21 AUDIO
    TITLE "0:"
    INDEX 01 00:36:09
  TRACK 22 AUDIO
    TITLE "2:cjc039_1131"
    INDEX 01 00:37:61
  TRACK 23 AUDIO
    TITLE "0:"
    INDEX 01 00:39:17
  TRACK 24 AUDIO
    TITLE "3:cjc039_1132"
    INDEX 01 00:39:68
  TRACK 25 AUDIO
    TITLE "0:"
    INDEX 01 00:43:35
  TRACK 26 AUDIO
    TITLE "2:cjc039_1133"
    INDEX 01 00:45:10
  TRACK 27 AUDIO
    TITLE "0:"
    INDEX 01 00:46:17
  TRACK 28 AUDIO
    TITLE "3:cjc039_1134"
    INDEX 01 00:46:70
  TRACK 29 AUDIO
    TITLE "0:"
    INDEX 01 00:51:42
  TRACK 30 AUDIO
    TITLE "2:cjc039_1135"
    INDEX 01 00:53:17
  TRACK 31 AUDIO
    TITLE "0:"
    INDEX 01 00:54:42
  TRACK 32 AUDIO
    TITLE "3:cjc039_1136"
    INDEX 01 00:55:20
  TRACK 33 AUDIO
    TITLE "0:"
    INDEX 01 00:58:54
  TRACK 34 AUDIO
    TITLE "2:cjc039_1137"
    INDEX 01 01:00:29
  TRACK 35 AUDIO
    TITLE "0:"
    INDEX 01 01:01:33
  TRACK 36 AUDIO
    TITLE "3:cjc039_1138"
    INDEX 01 01:02:12
  TRACK 37 AUDIO
    TITLE "0:"
    INDEX 01 01:06:02
  TRACK 38 AUDIO
    TITLE "2:cjc039_1139"
    INDEX 01 01:07:55
  TRACK 39 AUDIO
    TITLE "0:"
    INDEX 01 01:09:03
  TRACK 40 AUDIO
    TITLE "3:cjc039_1140"
    INDEX 01 01:09:52
  TRACK 41 AUDIO
    TITLE "0:"
    INDEX 01 01:13:57
  TRACK 42 AUDIO
    TITLE "2:cjc039_1141"
    INDEX 01 01:15:35
  TRACK 43 AUDIO
    TITLE "0:"
    INDEX 01 01:16:38
  TRACK 44 AUDIO
    TITLE "3:cjc039_1142"
    INDEX 01 01:17:12
  TRACK 45 AUDIO
    TITLE "0:"
    INDEX 01 01:20:42
  TRACK 46 AUDIO
    TITLE "2:cjc039_1143"
    INDEX 01 01:22:19
  TRACK 47 AUDIO
    TITLE "0:"
    INDEX 01 01:23:44
  TRACK 48 AUDIO
    TITLE "3:cjc039_1144"
    INDEX 01 01:24:20
  TRACK 49 AUDIO
    TITLE "0:"
    INDEX 01 01:28:08
  TRACK 50 AUDIO
    TITLE "2:cjc039_1145"
    INDEX 01 01:29:62
  TRACK 51 AUDIO
    TITLE "0:"
    INDEX 01 01:31:08
  TRACK 52 AUDIO
    TITLE "3:cjc039_1146"
    INDEX 01 01:31:61
  TRACK 53 AUDIO
    TITLE "0:"
    INDEX 01 01:35:20
  TRACK 54 AUDIO
    TITLE "2:cjc039_1147"
    INDEX 01 01:37:01
  TRACK 55 AUDIO
    TITLE "0:"
    INDEX 01 01:38:26
  TRACK 56 AUDIO
    TITLE "3:cjc039_1148"
    INDEX 01 01:39:02
  TRACK 57 AUDIO
    TITLE "0:"
    INDEX 01 01:43:05
  TRACK 58 AUDIO
    TITLE "2:cjc039_1149"
    INDEX 01 01:44:60
  TRACK 59 AUDIO
    TITLE "0:"
    INDEX 01 01:45:65
  TRACK 60 AUDIO
    TITLE "3:cjc039_1150"
    INDEX 01 01:46:47
  TRACK 61 AUDIO
    TITLE "0:"
    INDEX 01 01:50:07
  TRACK 62 AUDIO
    TITLE "2:cjc039_1151"
    INDEX 01 01:51:62
  TRACK 63 AUDIO
    TITLE "0:"
    INDEX 01 01:52:71
  TRACK 64 AUDIO
    TITLE "3:cjc039_1152"
    INDEX 01 01:53:43
  TRACK 65 AUDIO
    TITLE "0:"
    INDEX 01 01:57:74
  TRACK 66 AUDIO
    TITLE "2:cjc039_1153"
    INDEX 01 01:59:50
  TRACK 67 AUDIO
    TITLE "0:"
    INDEX 01 02:00:47
  TRACK 68 AUDIO
    TITLE "3:cjc039_1154"
    INDEX 01 02:01:21
  TRACK 69 AUDIO
    TITLE "0:"
    INDEX 01 02:04:68
  TRACK 70 AUDIO
    TITLE "2:cjc039_1155"
    INDEX 01 02:06:44
  TRACK 71 AUDIO
    TITLE "0:"
    INDEX 01 02:07:71
  TRACK 72 AUDIO
    TITLE "3:cjc039_1156"
    INDEX 01 02:08:41
  TRACK 73 AUDIO
    TITLE "0:"
    INDEX 01 02:13:54
  TRACK 74 AUDIO
    TITLE "2:cjc039_1157"
    INDEX 01 02:15:29
  TRACK 75 AUDIO
    TITLE "0:"
    INDEX 01 02:16:48
  TRACK 76 AUDIO
    TITLE "3:cjc039_1158"
    INDEX 01 02:17:26
  TRACK 77 AUDIO
    TITLE "0:"
    INDEX 01 02:20:71
  TRACK 78 AUDIO
    TITLE "2:cjc039_1159"
    INDEX 01 02:22:53
  TRACK 79 AUDIO
    TITLE "0:"
    INDEX 01 02:23:74
  TRACK 80 AUDIO
    TITLE "3:cjc039_1160"
    INDEX 01 02:24:57
  TRACK 81 AUDIO
    TITLE "0:"
    INDEX 01 02:29:08
